<?xml version="1.0" encoding="UTF-8" standalone="no"?>
<svg
   width="128"
   height="128"
   viewBox="0 0 33.866665 33.866667"
   version="1.1"
   id="svg8"
   sodipodi:docname="icon.svg"
   inkscape:version="1.1.1 (3bf5ae0d25, 2021-09-20)"
   inkscape:export-filename="abs-additional-block-styles-icon.png"
   inkscape:export-xdpi="450"
   inkscape:export-ydpi="450"
   xmlns:inkscape="http://www.inkscape.org/namespaces/inkscape"
   xmlns:sodipodi="http://sodipodi.sourceforge.net/DTD/sodipodi-0.dtd"
   xmlns="http://www.w3.org/2000/svg"
   xmlns:svg="http://www.w3.org/2000/svg"
   xmlns:rdf="http://www.w3.org/1999/02/22-rdf-syntax-ns#"
   xmlns:cc="http://creativecommons.org/ns#"
   xmlns:dc="http://purl.org/dc/elements/1.1/">
  <sodipodi:namedview
     id="namedview7"
     pagecolor="#505050"
     bordercolor="#eeeeee"
     borderopacity="1"
     inkscape:pageshadow="0"
     inkscape:pageopacity="0"
     inkscape:pagecheckerboard="0"
     showgrid="false"
     inkscape:zoom="1"
     inkscape:cx="59"
     inkscape:cy="64"
     inkscape:current-layer="svg8" />
  <defs
     id="defs2" />
  <metadata
     id="metadata5">
    <rdf:RDF>
      <cc:Work
         rdf:about="">
        <dc:format>image/svg+xml</dc:format>
        <dc:type
           rdf:resource="http://purl.org/dc/dcmitype/StillImage" />
        <cc:license
           rdf:resource="http://creativecommons.org/publicdomain/zero/1.0/" />
      </cc:Work>
      <cc:License
         rdf:about="http://creativecommons.org/publicdomain/zero/1.0/">
        <cc:permits
           rdf:resource="http://creativecommons.org/ns#Reproduction" />
        <cc:permits
           rdf:resource="http://creativecommons.org/ns#Distribution" />
        <cc:permits
           rdf:resource="http://creativecommons.org/ns#DerivativeWorks" />
      </cc:License>
    </rdf:RDF>
  </metadata>
  <rect
     transform="rotate(14.999999)"
     ry="2.6458333"
     rx="2.6458333"
     y="-2.3367383"
     x="6.4285994"
     height="28.620827"
     width="28.620827"
     id="rect1608-1-0-6"
     style="display:inline;fill:#fbce2f;fill-opacity:1;stroke:none;stroke-width:0.529164;stroke-linecap:round;stroke-linejoin:round" />
  <path
     id="path2699-2"
     style="fill:#1a1a1a;fill-opacity:1;stroke-width:3.17497;stop-color:#000000"
     d="m 18.635968,8.9859422 c -0.514729,-0.29012 -0.41212,-1.4682435 -0.788887,-1.5491393 -1.013029,-0.2175068 -2.629853,0.01224 -3.372586,-0.167766 -0.436432,-0.1057711 -0.300307,1.5754373 -0.549843,1.7163363 -0.614895,0.141552 -0.925455,0.729271 -1.683838,0.824497 -1.552794,0.1949818 -4.320079,1.4431958 -4.007903,4.1413798 0.37682,0.347707 0.716079,0.499512 1.018217,0.600062 0.258724,0.154861 0.225209,0.205933 0.481963,0.434101 0.203528,0.208 0.375184,0.511276 0.456543,0.953842 0.01363,0.164629 0.03412,0.36304 0.04252,0.421108 0.0983,0.679355 0.549656,1.169308 0.946155,1.488935 0.244277,0.196919 0.82703,0.275555 1.37966,0.274045 0.304329,-7.94e-4 0.497025,-0.028 0.672118,-0.08859 0.09718,-0.03363 0.119425,-0.04245 0.167142,-0.09745 0.04772,-0.055 0.116766,-0.171686 0.234474,-0.390988 0.168071,-0.313124 0.247036,-0.428369 0.369134,-0.522102 0.122851,-0.09427 0.27056,-0.137785 0.44178,-0.137613 0.177477,1.85e-4 0.334632,0.03212 0.464812,0.126392 0.13018,0.09428 0.22139,0.234542 0.314206,0.424651 0.142163,0.2912 0.189023,0.351067 0.334878,0.44296 0.06213,0.03914 0.1041,0.06052 0.206713,0.09273 0.102616,0.0322 0.262112,0.07145 0.530373,0.133479 1.148104,0.265494 1.709185,0.347491 2.185268,0.3272 0.621856,-0.02649 0.911955,-0.164971 1.144609,-0.51856 0.176744,-0.268615 0.252754,-0.508203 0.323064,-1.047747 0.04619,-0.354529 0.08869,-0.594133 0.155334,-0.785516 0.06665,-0.191387 0.163201,-0.33278 0.291172,-0.457727 0.0663,-0.06473 0.148978,-0.120758 0.231518,-0.166552 0.08254,-0.0458 0.142367,-0.08741 0.253966,-0.08741 0.133648,0 0.26082,0.09811 0.298849,0.225026 0.02177,0.07257 0.01805,0.17073 -0.02717,0.243332 -0.0452,0.0726 -0.108696,0.115443 -0.184272,0.157691 -0.04219,0.0236 -0.12324,0.08526 -0.141745,0.10395 -0.06094,0.06162 -0.0945,0.111614 -0.128754,0.215574 -0.03431,0.104167 -0.06364,0.262443 -0.09568,0.507339 -0.05296,0.404799 -0.08553,0.586954 -0.138793,0.77193 -0.08991,0.312237 -0.214373,0.565118 -0.398666,0.809138 -0.253188,0.335259 -0.633929,0.543698 -1.12807,0.625462 -0.330406,0.05467 -0.483166,0.05491 -0.926081,0.0071 -0.05953,0.604089 -0.11901,1.515481 -0.508519,1.917129 -0.02394,0.02405 -0.04934,0.04532 -0.07442,0.06733 0.171402,0.403463 -0.0077,1.276175 -0.469537,1.702737 0.0029,0.0031 0.0067,0.0064 0.0095,0.0094 0.04435,0.04964 0.08904,0.134927 0.08387,0.218522 -0.0052,0.0836 -0.126746,0.491604 -0.168915,0.578806 -0.265189,0.548393 -0.716989,0.966443 -1.220208,1.097356 -0.21304,0.05539 -0.61318,0.06484 -0.862293,0.03426 -0.08209,-0.01008 -0.228171,-0.03499 -0.340786,-0.05788 -0.197088,-0.04007 -0.4171,-0.100412 -0.602424,-0.169508 -0.09266,-0.03455 -0.176747,-0.07098 -0.247468,-0.111035 -0.03646,-0.02066 -0.06072,-0.05869 -0.09154,-0.08446 -0.168715,0.04173 -0.38072,0.06838 -0.509109,0.05906 h -5.29e-4 c -0.162587,-0.01193 -0.377531,-0.05778 -0.531551,-0.113985 -0.503631,-0.183801 -0.825293,-0.612513 -0.868793,-1.152877 -0.0081,-0.10033 -0.0075,-0.214958 -0.0013,-0.316569 0.0032,-0.05081 0.07385,-0.542247 0.08032,-0.584118 0.0065,-0.04187 0.0082,-0.07218 0.03426,-0.122846 0.03195,-0.06232 0.08188,-0.109527 0.139975,-0.140565 -0.01098,-0.01984 -0.02368,-0.03931 -0.03307,-0.05906 -0.09285,-0.195533 -0.128122,-0.386554 -0.129937,-0.668573 -5.29e-4,-0.105244 0.01762,-0.694206 0.02421,-0.749491 0.0066,-0.05529 0.03491,-0.117843 0.05847,-0.149424 0.01995,-0.02679 0.04451,-0.04839 0.07087,-0.06733 -0.06818,-0.109312 -0.119562,-0.239781 -0.168325,-0.376221 -0.02867,-0.08022 -0.04406,-0.839592 -0.03071,-1.034164 -0.245663,-0.02652 -0.494546,-0.07741 -0.731179,-0.187224 -0.09538,0.385114 -0.148965,0.792853 -0.126981,1.13634 0.04169,0.473607 0.140689,0.886372 0.187224,1.369046 0.03259,0.354116 -0.01328,0.675635 -0.16242,1.136928 -0.256963,0.933143 -0.264109,1.92922 0.01889,2.826676 0.924247,2.218113 8.558411,1.868803 9.508873,0.19136 0.279665,-1.008708 0.315029,-2.099077 0.479579,-3.03221 0.12523,-0.593722 0.271761,-0.90846 0.985734,-2.116168 0.394605,-0.70198 0.829932,-1.412518 1.122164,-2.105539 0.414965,0.455197 1.007597,1.818852 1.711598,1.773023 2.153187,-3.851995 0.987073,-11.2773598 -4.542433,-10.0410228 -0.607256,-0.170237 -0.935024,-0.629734 -1.465328,-0.72881 z m -3.918712,8.8621538 c -0.05588,0.728787 -0.137099,1.459966 -0.245105,2.174637 0.368343,0.02273 0.948008,0.08359 1.239697,0.175411 0.210688,0.06633 0.350327,0.133724 0.570532,0.274045 0.150564,0.09595 0.242739,0.150289 0.301212,0.176597 0.05847,0.02622 0.07704,0.02864 0.127574,0.02894 0.07557,5.29e-4 0.07187,0.0016 0.133477,-0.02894 0.458433,-0.385012 0.543388,-1.069672 0.542775,-1.703333 -0.0274,-0.005 -0.05372,-0.0089 -0.08151,-0.01418 -0.172897,-0.03287 -0.748358,-0.108553 -1.068419,-0.181909 -0.160028,-0.03668 -0.313576,-0.07263 -0.435282,-0.102174 -0.1217,-0.02955 -0.201964,-0.04928 -0.25219,-0.06615 -0.2828,-0.09494 -0.529442,-0.261985 -0.688065,-0.477806 -0.0411,-0.05593 -0.09401,-0.158641 -0.1447,-0.255145 z m -0.626052,0.157102 c -0.09306,0.164563 -0.186013,0.343103 -0.273452,0.423471 -0.307618,0.282731 -0.869249,0.39098 -1.563354,0.372676 -0.03647,0.276164 -0.03341,0.917696 0.088,0.966242 0.01077,0.02743 0.02548,0.04627 0.03426,0.05788 0.01249,0.0019 0.02778,0.0039 0.04843,0.003 0.04935,-0.0024 0.11617,-0.01312 0.186634,-0.0313 0.260652,-0.06726 0.438066,-0.06537 0.728816,0.0071 0.132027,0.0329 0.308385,0.07316 0.377995,0.08623 0.05565,0.01043 0.120345,0.0351 0.183679,0.05316 0.09935,-0.647354 0.153217,-1.293191 0.188997,-1.938391 z m -1.122164,2.377221 c -0.04498,0.0013 -0.09684,0.01378 -0.208486,0.03898 -0.162232,0.03669 -0.304279,0.05218 -0.431739,0.04311 0.0059,0.211063 -0.0016,0.560787 0.0024,0.653809 0.0051,0.118213 0.025,0.278011 0.02894,0.294126 0.01151,0.04713 0.03499,0.103635 0.06024,0.147064 0.02156,0.03708 0.04517,0.059 0.04548,0.06142 0.0097,0.0032 0.0367,0.01416 0.06615,0.02127 0.04581,0.01106 0.105912,0.02326 0.169505,0.03367 0.253698,0.04151 0.621146,0.134138 0.895958,0.216754 0.06855,-0.440806 0.142095,-0.88311 0.214985,-1.325927 -0.117541,-0.0254 -0.250555,-0.05472 -0.313616,-0.06851 -0.122259,-0.02676 -0.281316,-0.06359 -0.362045,-0.08446 -0.08465,-0.02186 -0.122754,-0.03239 -0.167735,-0.0313 z m 1.413928,0.248057 c -0.07673,0.480494 -0.152831,0.946883 -0.224433,1.397389 0.155906,0.01167 0.317162,0.0258 0.505563,0.05138 0.102487,0.01392 0.308687,0.02408 0.545727,0.02421 0.223155,1.51e-4 0.353952,0.0016 0.473083,0.02363 0.119134,0.02207 0.213704,0.06599 0.339601,0.131115 0.135781,0.07023 0.138319,0.07163 0.221483,0.07737 0.105169,0.0072 0.24924,-0.02259 0.358502,-0.07855 v -5.3e-4 c 0.249063,-0.09384 0.377738,-0.635267 0.422288,-0.990457 -0.174307,0.06342 -0.355195,0.07831 -0.525647,0.0313 -0.144315,-0.0398 -0.283713,-0.112356 -0.512062,-0.255739 -0.110643,-0.06947 -0.257767,-0.152252 -0.293534,-0.168912 -0.170458,-0.07936 -0.539504,-0.167296 -0.900686,-0.203171 -0.05106,-0.0051 -0.249611,-0.0235 -0.409885,-0.03898 z m -2.079551,1.608828 c -0.0145,0.146421 -0.06019,0.530096 -0.06201,0.617784 -0.0057,0.258564 0.04471,0.405863 0.166555,0.538049 0.130027,0.141076 0.412533,0.258299 0.777838,0.298259 -0.0074,-7.94e-4 0.06567,-0.0019 0.134067,-0.0065 0.02183,-0.0016 0.04459,-7.93e-4 0.06733,-0.0024 0.0266,-0.390379 0.06891,-0.782079 0.122256,-1.175911 -0.149855,-0.05682 -0.699974,-0.170408 -0.930217,-0.205534 -0.109122,-0.01664 -0.196688,-0.03841 -0.275815,-0.06379 z m 1.762982,0.399847 c -0.06217,0.42246 -0.113313,0.823322 -0.145883,1.1954 0.12015,0.0329 0.248933,0.07035 0.337833,0.09273 0.384591,0.09689 0.946055,0.134236 1.166461,0.09568 0.336238,-0.05882 0.65178,-0.319884 0.875879,-0.765434 0.02228,-0.0443 0.06473,-0.170273 0.108673,-0.291174 -0.12771,0.01267 -0.258443,0.01024 -0.367951,-0.01476 -0.09383,-0.02143 -0.207195,-0.07214 -0.312436,-0.126981 h -5.29e-4 l -0.141155,-0.07383 -0.438238,-0.0094 h -5.29e-4 c -0.36022,-0.0078 -0.798237,-0.05729 -1.082006,-0.102174 z"
     sodipodi:nodetypes="cssccccccccscsscccccscccscsssscccccsscsccccccscsssccccccccccccsccscccccccccccccccccccccccscccccccccccccccccccccsscccccccccccscccccccssccccsccccccccccccsscccccccc" />
</svg>
